<svg width="20" height="20" viewBox="0 0 20 20" fill="none" xmlns="http://www.w3.org/2000/svg">
<path d="M17.5 4.16634C17.5 3.7061 17.1269 3.33301 16.6667 3.33301H3.33333C2.8731 3.33301 2.5 3.7061 2.5 4.16634C2.5 4.62658 2.8731 4.99967 3.33333 4.99967H16.6667C17.1269 4.99967 17.5 4.62658 17.5 4.16634Z" fill="#222834"/>
<path d="M17.5 9.99967C17.5 9.53944 17.1269 9.16634 16.6667 9.16634H3.33333C2.8731 9.16634 2.5 9.53944 2.5 9.99967C2.5 10.4599 2.8731 10.833 3.33333 10.833H16.6667C17.1269 10.833 17.5 10.4599 17.5 9.99967Z" fill="#222834"/>
<path d="M16.6667 14.9997C17.1269 14.9997 17.5 15.3728 17.5 15.833C17.5 16.2932 17.1269 16.6663 16.6667 16.6663H3.33333C2.8731 16.6663 2.5 16.2932 2.5 15.833C2.5 15.3728 2.8731 14.9997 3.33333 14.9997H16.6667Z" fill="#222834"/>
</svg>
