<svg width="21" height="20" viewBox="0 0 21 20" fill="none" xmlns="http://www.w3.org/2000/svg">
<path d="M12.1667 10.833C11.7065 10.833 11.3334 11.2061 11.3334 11.6663C11.3334 12.1266 11.7065 12.4997 12.1667 12.4997H14.6667C15.127 12.4997 15.5001 12.1266 15.5001 11.6663C15.5001 11.2061 15.127 10.833 14.6667 10.833H12.1667Z" fill="#C31D28"/>
<path fill-rule="evenodd" clip-rule="evenodd" d="M2.16675 5.83301C2.16675 4.4523 3.28604 3.33301 4.66675 3.33301H16.3334C17.7141 3.33301 18.8334 4.4523 18.8334 5.83301V14.1663C18.8334 15.5471 17.7141 16.6663 16.3334 16.6663H4.66675C3.28604 16.6663 2.16675 15.5471 2.16675 14.1663V5.83301ZM4.66675 4.99967C4.20651 4.99967 3.83341 5.37277 3.83341 5.83301V6.66634H17.1667V5.83301C17.1667 5.37277 16.7937 4.99967 16.3334 4.99967H4.66675ZM3.83341 14.1663V8.33301H17.1667V14.1663C17.1667 14.6266 16.7937 14.9997 16.3334 14.9997H4.66675C4.20651 14.9997 3.83341 14.6266 3.83341 14.1663Z" fill="#C31D28"/>
</svg>
