<svg width="21" height="20" viewBox="0 0 21 20" fill="none" xmlns="http://www.w3.org/2000/svg">
<path d="M14.6667 10.834C14.6667 11.1655 14.5351 11.4834 14.3006 11.7179C14.0662 11.9523 13.7483 12.084 13.4167 12.084C13.0852 12.084 12.7673 11.9523 12.5329 11.7179C12.2984 11.4834 12.1667 11.1655 12.1667 10.834C12.1667 10.5025 12.2984 10.1845 12.5329 9.9501C12.7673 9.71568 13.0852 9.58398 13.4167 9.58398C13.7483 9.58398 14.0662 9.71568 14.3006 9.9501C14.5351 10.1845 14.6667 10.5025 14.6667 10.834Z" fill="white"/>
<path fill-rule="evenodd" clip-rule="evenodd" d="M4.51083 4.77359L13.6775 2.15442C13.9876 2.0658 14.314 2.05038 14.631 2.10936C14.9481 2.16835 15.2471 2.30013 15.5046 2.49434C15.762 2.68854 15.9709 2.93987 16.1147 3.22852C16.2585 3.51717 16.3334 3.83527 16.3333 4.15776V5.00026C16.7754 5.00026 17.1993 5.17585 17.5118 5.48841C17.8244 5.80097 18 6.2249 18 6.66692V15.0003C18 15.4423 17.8244 15.8662 17.5118 16.1788C17.1993 16.4913 16.7754 16.6669 16.3333 16.6669H4.66667C4.22464 16.6669 3.80072 16.4913 3.48816 16.1788C3.17559 15.8662 3 15.4423 3 15.0003V6.66692C3 5.79609 3.69583 5.00609 4.51083 4.77359ZM14.1358 3.75692C14.1978 3.73928 14.263 3.73623 14.3263 3.74802C14.3896 3.75981 14.4493 3.78612 14.5008 3.82488C14.5522 3.86364 14.5939 3.91379 14.6227 3.9714C14.6515 4.02902 14.6666 4.09252 14.6667 4.15692V5.00026H9.78333L14.1358 3.75692ZM4.66667 6.66692H16.3333V15.0003H4.66667V6.66692Z" fill="white"/>
</svg>
