<svg width="16" height="12" viewBox="0 0 16 12" fill="none" xmlns="http://www.w3.org/2000/svg">
<path d="M0.5 1.00033C0.5 0.540088 0.873096 0.166992 1.33333 0.166992H14.6667C15.1269 0.166992 15.5 0.540088 15.5 1.00033C15.5 1.46056 15.1269 1.83366 14.6667 1.83366H1.33333C0.873096 1.83366 0.5 1.46056 0.5 1.00033Z" fill="#09244B"/>
<path d="M3 6.00033C3 5.54009 3.3731 5.16699 3.83333 5.16699H12.1667C12.6269 5.16699 13 5.54009 13 6.00033C13 6.46056 12.6269 6.83366 12.1667 6.83366H3.83333C3.3731 6.83366 3 6.46056 3 6.00033Z" fill="#09244B"/>
<path d="M6.33333 10.167C5.8731 10.167 5.5 10.5401 5.5 11.0003C5.5 11.4606 5.8731 11.8337 6.33333 11.8337H9.66667C10.1269 11.8337 10.5 11.4606 10.5 11.0003C10.5 10.5401 10.1269 10.167 9.66667 10.167H6.33333Z" fill="#09244B"/>
</svg>
