<svg width="16" height="16" viewBox="0 0 16 16" fill="none" xmlns="http://www.w3.org/2000/svg">
<path fill-rule="evenodd" clip-rule="evenodd" d="M1.33325 7.99967C1.33325 4.31778 4.31802 1.33301 7.99992 1.33301C11.6818 1.33301 14.6666 4.31778 14.6666 7.99967C14.6666 11.6816 11.6818 14.6663 7.99992 14.6663C4.31802 14.6663 1.33325 11.6816 1.33325 7.99967ZM5.64293 5.64263C5.90328 5.38228 6.32539 5.38228 6.58574 5.64263L7.99992 7.0568L9.41411 5.64261C9.67446 5.38226 10.0966 5.38226 10.3569 5.64261C10.6173 5.90296 10.6173 6.32507 10.3569 6.58542L8.94273 7.99961L10.357 9.41387C10.6173 9.67421 10.6173 10.0963 10.357 10.3567C10.0966 10.617 9.67452 10.617 9.41417 10.3567L7.99992 8.94242L6.58568 10.3567C6.32533 10.617 5.90322 10.617 5.64287 10.3567C5.38252 10.0963 5.38252 9.6742 5.64287 9.41385L7.05711 7.99961L5.64293 6.58544C5.38259 6.32509 5.38259 5.90298 5.64293 5.64263Z" fill="#83868B"/>
</svg>
