<svg width="23" height="16" viewBox="0 0 23 16" fill="none" xmlns="http://www.w3.org/2000/svg">
<path d="M0.894775 3.4541C0.894775 2.34953 1.79021 1.4541 2.89478 1.4541H3.27372C4.37829 1.4541 5.27372 2.34953 5.27372 3.4541V9.63592C5.27372 10.7405 6.16915 11.6359 7.27372 11.6359H16.4106C17.5151 11.6359 18.4106 10.7405 18.4106 9.63592V3.4541C18.4106 2.34953 19.306 1.4541 20.4106 1.4541H20.7895C21.8941 1.4541 22.7895 2.34953 22.7895 3.4541V10.9996C22.7895 13.761 20.5509 15.9996 17.7895 15.9996H5.89478C3.13336 15.9996 0.894775 13.761 0.894775 10.9996V3.4541Z" fill="#BEE0FF"/>
<path d="M6.04639 4C6.04639 1.79086 7.83725 0 10.0464 0H13.6377C15.8469 0 17.6377 1.79086 17.6377 4V10.9091H6.04639V4Z" fill="#BEE0FF"/>
</svg>
