<svg width="29" height="18" viewBox="0 0 34 25" fill="none" xmlns="http://www.w3.org/2000/svg">
    <path d="M0 4.2666C0 3.16203 0.89543 2.2666 2 2.2666H4.8C5.90457 2.2666 6.8 3.16203 6.8 4.2666V16.1333C6.8 17.2378 7.69543 18.1333 8.8 18.1333H25.2C26.3046 18.1333 27.2 17.2378 27.2 16.1333V4.2666C27.2 3.16203 28.0954 2.2666 29.2 2.2666H32C33.1046 2.2666 34 3.16203 34 4.2666V19.9333C34 22.6947 31.7614 24.9333 29 24.9333H5C2.23858 24.9333 0 22.6947 0 19.9333V4.2666Z" fill="#D8DCE4"/>
    <path d="M8 4C8 1.79086 9.79086 0 12 0H22C24.2091 0 26 1.79086 26 4V17H8V4Z" fill="#D8DCE4"/>
</svg>
