<svg width="22" height="16" viewBox="0 0 23 16" fill="none" xmlns="http://www.w3.org/2000/svg">
<path d="M0.684082 3.4541C0.684082 2.34953 1.57951 1.4541 2.68408 1.4541H3.06303C4.1676 1.4541 5.06303 2.34953 5.06303 3.4541V9.63592C5.06303 10.7405 5.95846 11.6359 7.06303 11.6359H16.1999C17.3044 11.6359 18.1999 10.7405 18.1999 9.63592V3.4541C18.1999 2.34953 19.0953 1.4541 20.1999 1.4541H20.5788C21.6834 1.4541 22.5788 2.34953 22.5788 3.4541V10.9996C22.5788 13.761 20.3402 15.9996 17.5788 15.9996H5.68409C2.92266 15.9996 0.684082 13.761 0.684082 10.9996V3.4541Z" fill="#C31D28"/>
<path d="M5.83569 4C5.83569 1.79086 7.62655 0 9.83569 0H13.427C15.6362 0 17.427 1.79086 17.427 4V10.9091H5.83569V4Z" fill="#C31D28"/>
</svg>
