<svg width="34" height="25" viewBox="0 0 23 16" fill="none" xmlns="http://www.w3.org/2000/svg">
<path d="M0.789551 3.4541C0.789551 2.34953 1.68498 1.4541 2.78955 1.4541H3.1685C4.27307 1.4541 5.1685 2.34953 5.1685 3.4541V9.63592C5.1685 10.7405 6.06393 11.6359 7.1685 11.6359H16.3053C17.4099 11.6359 18.3053 10.7405 18.3053 9.63592V3.4541C18.3053 2.34953 19.2008 1.4541 20.3053 1.4541H20.6843C21.7889 1.4541 22.6843 2.34953 22.6843 3.4541V10.9996C22.6843 13.761 20.4457 15.9996 17.6843 15.9996H5.78955C3.02813 15.9996 0.789551 13.761 0.789551 10.9996V3.4541Z" fill="#5C667A"/>
<path d="M5.89844 3C5.89844 1.34315 7.24158 0 8.89844 0H14.5756C16.2325 0 17.5756 1.34315 17.5756 3V9.90909C17.5756 10.4614 17.1279 10.9091 16.5756 10.9091H6.89844C6.34615 10.9091 5.89844 10.4614 5.89844 9.90909V3Z" fill="#5C667A"/>
</svg>
