<svg width="22" height="16" viewBox="0 0 34 26" fill="none" xmlns="http://www.w3.org/2000/svg">
<path d="M0 4.9331C0 3.82853 0.89543 2.93311 2 2.93311H4.8C5.90457 2.93311 6.8 3.82854 6.8 4.93311V16.7998C6.8 17.9043 7.69543 18.7998 8.8 18.7998H25.2C26.3046 18.7998 27.2 17.9043 27.2 16.7998V4.93311C27.2 3.82854 28.0954 2.93311 29.2 2.93311H32C33.1046 2.93311 34 3.82853 34 4.9331V20.5998C34 23.3612 31.7614 25.5998 29 25.5998H5C2.23858 25.5998 0 23.3612 0 20.5998V4.9331Z" fill="#FFEFC3"/>
<path d="M8 4.6665C8 2.45736 9.79086 0.666504 12 0.666504H22C24.2091 0.666504 26 2.45736 26 4.6665V17.6665H8V4.6665Z" fill="#FFEFC3"/>
</svg>
