<svg width="22" height="16" viewBox="0 0 22 16" fill="none" xmlns="http://www.w3.org/2000/svg">
<path d="M0 3.4541C0 2.34953 0.895431 1.4541 2 1.4541H2.37895C3.48352 1.4541 4.37895 2.34953 4.37895 3.4541V9.63592C4.37895 10.7405 5.27438 11.6359 6.37895 11.6359H15.5158C16.6204 11.6359 17.5158 10.7405 17.5158 9.63592V3.4541C17.5158 2.34953 18.4112 1.4541 19.5158 1.4541H19.8947C20.9993 1.4541 21.8947 2.34953 21.8947 3.4541V10.9996C21.8947 13.761 19.6562 15.9996 16.8947 15.9996H5C2.23858 15.9996 0 13.761 0 10.9996V3.4541Z" fill="#F9C9CD"/>
<path d="M5.15161 4C5.15161 1.79086 6.94247 0 9.15161 0H12.7429C14.9521 0 16.7429 1.79086 16.7429 4V10.9091H5.15161V4Z" fill="#F9C9CD"/>
</svg>
